<svg width="60" height="60" viewBox="0 0 60 60" xmlns="http://www.w3.org/2000/svg">
  <path d="M30 10C35.5228 10 40 14.4772 40 20C40 25.5228 35.5228 30 30 30C24.4772 30 20 25.5228 20 20C20 14.4772 24.4772 10 30 10Z" fill="none" stroke="#0066cc" stroke-width="1" opacity="0.3"/>
  <path d="M15 40C20.5228 40 25 44.4772 25 50C25 55.5228 20.5228 60 15 60C9.47715 60 5 55.5228 5 50C5 44.4772 9.47715 40 15 40Z" fill="none" stroke="#0066cc" stroke-width="1" opacity="0.3"/>
  <path d="M45 40C50.5228 40 55 44.4772 55 50C55 55.5228 50.5228 60 45 60C39.4772 60 35 55.5228 35 50C35 44.4772 39.4772 40 45 40Z" fill="none" stroke="#0066cc" stroke-width="1" opacity="0.3"/>
  <path d="M15 0C20.5228 0 25 4.47715 25 10C25 15.5228 20.5228 20 15 20C9.47715 20 5 15.5228 5 10C5 4.47715 9.47715 0 15 0Z" fill="none" stroke="#0066cc" stroke-width="1" opacity="0.3"/>
  <path d="M45 0C50.5228 0 55 4.47715 55 10C55 15.5228 50.5228 20 45 20C39.4772 20 35 15.5228 35 10C35 4.47715 39.4772 0 45 0Z" fill="none" stroke="#0066cc" stroke-width="1" opacity="0.3"/>
  <path d="M30 30C35.5228 30 40 34.4772 40 40C40 45.5228 35.5228 50 30 50C24.4772 50 20 45.5228 20 40C20 34.4772 24.4772 30 30 30Z" fill="none" stroke="#0066cc" stroke-width="1" opacity="0.3"/>
  <path d="M30 0L30 5M30 55L30 60M0 30L5 30M55 30L60 30" stroke="#0066cc" stroke-width="1" opacity="0.2"/>
  <path d="M30 20Q32 25 37 25M30 20Q28 25 23 25M30 40Q32 35 37 35M30 40Q28 35 23 35" stroke="#0066cc" stroke-width="1" opacity="0.2"/>
</svg>