<?xml version="1.0" encoding="UTF-8" standalone="no"?>
<svg viewBox="0 0 1200 800" xmlns="http://www.w3.org/2000/svg">
  <defs>
    <linearGradient id="sky" x1="0%" y1="0%" x2="0%" y2="100%">
      <stop offset="0%" stop-color="#87CEEB" />
      <stop offset="100%" stop-color="#B0E0E6" />
    </linearGradient>
    <linearGradient id="field" x1="0%" y1="0%" x2="0%" y2="100%">
      <stop offset="0%" stop-color="#7CFC00" />
      <stop offset="100%" stop-color="#32CD32" />
    </linearGradient>
    <linearGradient id="maharashtra" x1="0%" y1="0%" x2="100%" y2="0%">
      <stop offset="0%" stop-color="#DAA520" />
      <stop offset="100%" stop-color="#CD853F" />
    </linearGradient>
    <linearGradient id="water" x1="0%" y1="0%" x2="100%" y2="0%">
      <stop offset="0%" stop-color="#1E90FF" />
      <stop offset="100%" stop-color="#4169E1" />
    </linearGradient>
    <filter id="shadow" x="-20%" y="-20%" width="140%" height="140%">
      <feGaussianBlur in="SourceAlpha" stdDeviation="3" />
      <feOffset dx="2" dy="2" result="offsetblur" />
      <feComponentTransfer>
        <feFuncA type="linear" slope="0.5" />
      </feComponentTransfer>
      <feMerge>
        <feMergeNode />
        <feMergeNode in="SourceGraphic" />
      </feMerge>
    </filter>
  </defs>
  
  <!-- Sky Background -->
  <rect width="1200" height="400" fill="url(#sky)" />
  
  <!-- Field Background -->
  <rect y="400" width="1200" height="400" fill="url(#field)" />
  
  <!-- Stylized Maharashtra State -->
  <path d="M700,200 Q750,180 800,210 Q850,240 900,220 Q950,200 980,230 
           Q1000,260 980,300 Q960,340 980,380 Q1000,420 980,460 
           Q960,500 930,520 Q900,540 850,530 Q800,520 750,540 
           Q700,560 650,540 Q600,520 580,480 Q560,440 580,400 
           Q600,360 580,320 Q560,280 580,240 Q600,200 650,190 Q700,180 700,200 Z" 
        fill="url(#maharashtra)" 
        stroke="#8B4513" 
        stroke-width="2" 
        opacity="0.9"
        filter="url(#shadow)" />
  
  <!-- Water Components -->
  <!-- Water Tower -->
  <g transform="translate(300, 350) scale(0.8)">
    <rect x="-20" y="-150" width="40" height="20" fill="#1E90FF" rx="5" ry="5" />
    <path d="M-20,-130 L-20,-50 L-40,-50 L-40,-30 L40,-30 L40,-50 L20,-50 L20,-130 Z" fill="#1E90FF" />
    <rect x="-40" y="-30" width="80" height="10" fill="#4682B4" />
    <line x1="-40" y1="-30" x2="40" y2="-30" stroke="#000" stroke-width="1" />
    <rect x="-30" y="-50" width="60" height="20" fill="#87CEEB" fill-opacity="0.3" />
    <ellipse cx="0" cy="-150" rx="30" ry="10" fill="#1E90FF" />
  </g>
  
  <!-- Water Tap and Bowl -->
  <g transform="translate(150, 450) scale(0.7)">
    <path d="M0,0 L0,-80 L20,-80 L20,-60 Q40,-60 40,-40 L40,0 Z" fill="#A9A9A9" />
    <circle cx="20" cy="-70" r="5" fill="#C0C0C0" />
    <path d="M40,-20 Q60,-20 60,0 L60,10 L40,10 Z" fill="#808080" />
    <ellipse cx="100" cy="30" rx="60" ry="20" fill="#1E90FF" />
    <ellipse cx="100" cy="30" rx="50" ry="15" fill="#87CEEB" fill-opacity="0.5" />
    <path d="M60,0 Q70,0 80,-10 Q90,-20 100,-10 Q110,0 120,-5 Q130,-10 140,0 L140,10 Q130,15 120,10 Q110,5 100,15 Q90,25 80,15 Q70,5 60,10 Z" fill="#87CEEB" fill-opacity="0.7" />
  </g>
  
  <!-- IOT Icons at Top -->
  <g transform="translate(600, 100) scale(0.8)">
    <!-- Water Droplet Icon -->
    <circle cx="0" cy="0" r="30" fill="#f0f8ff" stroke="#1E90FF" stroke-width="3" />
    <path d="M0,-15 Q-10,0 0,15 Q10,0 0,-15 Z" fill="#1E90FF" stroke="#1E90FF" stroke-width="1" />
    
    <!-- Gauge Icon -->
    <circle cx="100" cy="0" r="30" fill="#f0f8ff" stroke="#1E90FF" stroke-width="3" />
    <circle cx="100" cy="0" r="20" fill="none" stroke="#1E90FF" stroke-width="2" />
    <path d="M100,-15 L100,0 L85,0" fill="none" stroke="#1E90FF" stroke-width="2" />
    <circle cx="100" cy="0" r="3" fill="#1E90FF" />
    
    <!-- Graph Icon -->
    <circle cx="200" cy="0" r="30" fill="#f0f8ff" stroke="#1E90FF" stroke-width="3" />
    <polyline points="180,10 190,-5 200,5 210,-10 220,10" fill="none" stroke="#1E90FF" stroke-width="2" />
    
    <!-- More Icon -->
    <circle cx="300" cy="0" r="30" fill="#f0f8ff" stroke="#1E90FF" stroke-width="3" />
    <circle cx="290" cy="0" r="3" fill="#1E90FF" />
    <circle cx="300" cy="0" r="3" fill="#1E90FF" />
    <circle cx="310" cy="0" r="3" fill="#1E90FF" />
  </g>
  
  <!-- Home with Water Icon -->
  <g transform="translate(120, 200) scale(0.7)">
    <path d="M0,50 L50,0 L100,50 L100,100 L0,100 Z" fill="none" stroke="#1E90FF" stroke-width="4" />
    <path d="M35,50 Q50,30 65,50 Q50,70 35,50 Z" fill="none" stroke="#1E90FF" stroke-width="4" />
  </g>
</svg>